<svg xmlns="http://www.w3.org/2000/svg" version="1.1" xmlns:xlink="http://www.w3.org/1999/xlink" xmlns:svgjs="http://svgjs.dev/svgjs" width="1000" height="623" viewBox="0 0 1000 623"><g transform="matrix(1,0,0,1,-0.6060606060606233,0.2522267206477409)"><svg viewBox="0 0 396 247" data-background-color="#e65728" preserveAspectRatio="xMidYMid meet" height="623" width="1000" xmlns="http://www.w3.org/2000/svg" xmlns:xlink="http://www.w3.org/1999/xlink"><g id="tight-bounds" transform="matrix(1,0,0,1,0.2400000000000091,-0.09999999999999432)"><svg viewBox="0 0 395.52 247.2" height="247.2" width="395.52"><g><svg></svg></g><g><svg viewBox="0 0 395.52 247.2" height="247.2" width="395.52"><mask id="7c98fcb7-359b-44a6-8957-66ad7fbb7e2f"><rect width="640" height="400" fill="white"></rect><g transform="matrix(1,0,0,1,108.01986287952987,37.08)"><svg viewBox="0 0 179.48027424094025 173.04" height="173.04" width="179.48027424094025"><g><svg viewBox="0 0 179.48027424094025 173.04" height="173.04" width="179.48027424094025"><g><svg viewBox="0 0 179.48027424094025 173.04" height="173.04" width="179.48027424094025"><g><svg viewBox="0 0 179.48027424094025 173.04" height="173.04" width="179.48027424094025"><g id="SvgjsG1054"><svg viewBox="0 0 179.48027424094025 173.04" height="173.04" width="179.48027424094025" id="SvgjsSvg1053"><g><svg viewBox="0 0 179.48027424094025 173.04" height="173.04" width="179.48027424094025"><g transform="matrix(1,0,0,1,0,0)"><svg width="179.48027424094025" viewBox="-2.649999976158142 -42.349998474121094 53.95000076293945 52.04999923706055" height="173.04" data-palette-color="#ffa458"><path d="M30.3 0L26.2-11.05 10.4-11.05 6.35 0 1.35 0 15.6-38.35 21-38.35 35.3 0 30.3 0ZM12.05-15.4L24.55-15.4 18.3-32.3 12.05-15.4ZM39.85 5.7Q38.2 5.7 37 5.45L37 5.45 37 1.15Q38 1.35 39.4 1.35L39.4 1.35Q40.65 1.35 41.27 0.93 41.9 0.5 42.17-0.63 42.45-1.75 42.45-3.95L42.45-3.95 42.45-37.9 47.3-37.9 47.3-3.65Q47.3 0.15 46.65 2.13 46 4.1 44.45 4.9 42.9 5.7 39.85 5.7L39.85 5.7Z" opacity="1" transform="matrix(1,0,0,1,0,0)" fill="black" class="wordmark-text-0" id="SvgjsPath1052" stroke-width="7" stroke="black" stroke-linejoin="round"></path></svg></g></svg></g></svg></g></svg></g></svg></g></svg></g></svg></g></mask><g transform="matrix(1,0,0,1,108.01986287952987,37.08)"><svg viewBox="0 0 179.48027424094025 173.04" height="173.04" width="179.48027424094025"><g><svg viewBox="0 0 179.48027424094025 173.04" height="173.04" width="179.48027424094025"><g><svg viewBox="0 0 179.48027424094025 173.04" height="173.04" width="179.48027424094025"><g><svg viewBox="0 0 179.48027424094025 173.04" height="173.04" width="179.48027424094025"><g id="textblocktransform"><svg viewBox="0 0 179.48027424094025 173.04" height="173.04" width="179.48027424094025" id="textblock"><g><svg viewBox="0 0 179.48027424094025 173.04" height="173.04" width="179.48027424094025"><g transform="matrix(1,0,0,1,0,0)"><svg width="179.48027424094025" viewBox="-2.649999976158142 -42.349998474121094 53.95000076293945 52.04999923706055" height="173.04" data-palette-color="#ffa458"><path d="M30.3 0L26.2-11.05 10.4-11.05 6.35 0 1.35 0 15.6-38.35 21-38.35 35.3 0 30.3 0ZM12.05-15.4L24.55-15.4 18.3-32.3 12.05-15.4ZM39.85 5.7Q38.2 5.7 37 5.45L37 5.45 37 1.15Q38 1.35 39.4 1.35L39.4 1.35Q40.65 1.35 41.27 0.93 41.9 0.5 42.17-0.63 42.45-1.75 42.45-3.95L42.45-3.95 42.45-37.9 47.3-37.9 47.3-3.65Q47.3 0.15 46.65 2.13 46 4.1 44.45 4.9 42.9 5.7 39.85 5.7L39.85 5.7Z" opacity="1" transform="matrix(1,0,0,1,0,0)" fill="#ffffff" class="wordmark-text-0" data-fill-palette-color="primary" id="text-0"></path></svg></g></svg></g></svg></g></svg></g></svg></g></svg></g></svg></g><g mask="url(#7c98fcb7-359b-44a6-8957-66ad7fbb7e2f)"><g transform="matrix(4.860551984757419, 0, 0, 4.860551984757419, 1, 56.57603376263009)"><svg xmlns="http://www.w3.org/2000/svg" xmlns:xlink="http://www.w3.org/1999/xlink" version="1.1" x="0" y="0" viewBox="11.037999153137207 36.42118453979492 80.96199798583984 27.578746795654297" enable-background="new 0 0 100 100" xml:space="preserve" height="27.578746795654297" width="80.96199798583984" class="icon-none" data-fill-palette-color="accent" id="none"><path fill="#ffffff" d="M88.929 59.372c0 0 1.929-3.537-1.479-5.883-3.877-2.668-8.561-0.178-14.523-1.723-5.96-1.543-23.95-14.836-23.95-14.836s-2.311-1.486-5.505 0.621c-3.2 2.116-6.927 3.907-11.671 3.557-4.732-0.352-14.889-4.143-14.889-4.143s-1.475-0.457-1.562 1.603c-1.387 1.979-2.744 3.533-3.019 7.173-0.275 3.639 1.468 8.051 1.468 8.051s19.868 1.275 30.187 3.627C54.308 59.771 72.495 61.397 88.929 59.372z" data-fill-palette-color="accent"></path><path fill="#ffffff" d="M91.28 58.519c0 0-18.921 2.809-32.376 0.689-13.443-2.094-32.333-5.453-38.916-5.99-6.576-0.539-8.646 0.258-8.646 0.258l-0.304 10.518h26.314l0.251-4.143c7.652 0 14.59 2.412 20.998 3.418C72.05 65.374 92 62.263 92 62.263L91.28 58.519z" data-fill-palette-color="accent"></path></svg></g></g></svg></g><defs></defs></svg><rect width="395.52" height="247.2" fill="none" stroke="none" visibility="hidden"></rect></g></svg></g></svg>